<svg id="Слой_1" xmlns="http://www.w3.org/2000/svg" viewBox="0 0 44 10.5"><style>.st0{fill:#fff}.st1{fill:none;stroke:#fff;stroke-width:.5107}</style><ellipse class="st0" cx="5.9" cy="5.3" rx="1.1" ry="1"/><ellipse class="st1" cx="5.9" cy="5.3" rx="5.6" ry="2.1"/><path class="st1" d="M7.8 4.2c1.6 2.7 2 5.3 1 5.9S5.6 9.1 4 6.4 2 1.1 3 .5s3.2 1.1 4.8 3.7z"/><path class="st1" d="M7.8 6.4c-1.6 2.7-3.7 4.4-4.7 3.8s-.6-3.3.9-6S7.7-.2 8.7.4s.6 3.3-.9 6z"/><g><path class="st0" d="M15.8 6.1h-1.5v3.4h-1.1V1.1h2.4c.8 0 1.5.2 1.9.6s.6 1.1.6 1.9c0 .5-.1 1-.3 1.4-.2.4-.6.7-1 .9l1.7 3.6v.1h-1.2l-1.5-3.5zm-1.5-.9h1.3c.4 0 .8-.1 1.1-.4.3-.3.4-.7.4-1.2 0-1.1-.5-1.6-1.5-1.6h-1.3v3.2zM23.7 5.6h-3v3h3.5v.9h-4.6V1.1h4.5V2h-3.5v2.7h3v.9zM29.5 7.3h-2.9L26 9.5h-1.1L27.6 1h.9l2.8 8.5h-1.1l-.7-2.2zm-2.6-.9h2.3L28 2.6l-1.1 3.8zM37.7 6.8c0 .9-.3 1.6-.8 2.1s-1.1.7-2 .7c-.9 0-1.5-.3-2-1-.5-.6-.8-1.5-.8-2.6V4.5c0-1.1.3-2 .8-2.6s1.2-1 2.1-1c.8 0 1.5.2 1.9.7s.7 1.2.7 2.1h-1.1c0-.7-.2-1.2-.4-1.5s-.6-.4-1.1-.4c-.6 0-1 .2-1.3.7s-.5 1.1-.5 2V6c0 .9.1 1.5.4 2 .4.5.8.7 1.4.7s1-.1 1.2-.4.4-.8.5-1.5h1zM44 2h-2.2v7.5h-1.1V2h-2.2v-.9H44V2z"/></g></svg>